<svg width="150" height="148" viewBox="0 0 150 148" fill="none" xmlns="http://www.w3.org/2000/svg">
<g filter="url(#filter0_d_149_29)">
<mask id="path-1-inside-1_149_29" fill="white">
<path fill-rule="evenodd" clip-rule="evenodd" d="M77.9732 92.7223L50.5116 85.3796L75.3775 65.8694C77.9002 63.89 81.2301 63.2726 84.3184 64.2115L135.428 79.7492C139.028 80.8437 141.506 83.7358 142.326 87.0643C143.443 89.1283 143.677 91.6372 142.594 94.1268C131.9 118.715 106.564 136 77.0126 136C37.7934 136 6 105.555 6 68C6 30.4446 37.7934 0 77.0126 0C106.564 0 131.9 17.2852 142.594 41.8732C145.148 47.7431 140.38 53.72 133.979 53.72H93.0564C89.0932 53.72 85.6421 51.2633 83.2448 48.1073C80.8014 44.8907 77.6505 42.2756 73.8786 40.5481C60.1157 34.2446 43.2979 42.1443 36.3151 58.1928C29.3323 74.2412 34.8286 92.361 48.5916 98.6646C58.3871 103.151 69.73 100.443 77.9732 92.7223Z"/>
</mask>
<path fill-rule="evenodd" clip-rule="evenodd" d="M77.9732 92.7223L50.5116 85.3796L75.3775 65.8694C77.9002 63.89 81.2301 63.2726 84.3184 64.2115L135.428 79.7492C139.028 80.8437 141.506 83.7358 142.326 87.0643C143.443 89.1283 143.677 91.6372 142.594 94.1268C131.9 118.715 106.564 136 77.0126 136C37.7934 136 6 105.555 6 68C6 30.4446 37.7934 0 77.0126 0C106.564 0 131.9 17.2852 142.594 41.8732C145.148 47.7431 140.38 53.72 133.979 53.72H93.0564C89.0932 53.72 85.6421 51.2633 83.2448 48.1073C80.8014 44.8907 77.6505 42.2756 73.8786 40.5481C60.1157 34.2446 43.2979 42.1443 36.3151 58.1928C29.3323 74.2412 34.8286 92.361 48.5916 98.6646C58.3871 103.151 69.73 100.443 77.9732 92.7223Z" fill="url(#paint0_linear_149_29)"/>
<path d="M77.9732 92.7223L80.024 94.9119L83.9666 91.2194L78.7481 89.8241L77.9732 92.7223ZM50.5116 85.3796L48.6597 83.0194L43.9349 86.7265L49.7366 88.2778L50.5116 85.3796ZM75.3775 65.8694L73.5256 63.5092L73.5256 63.5092L75.3775 65.8694ZM84.3184 64.2115L83.4459 67.0818L83.4459 67.0818L84.3184 64.2115ZM135.428 79.7492L134.555 82.6195L134.555 82.6195L135.428 79.7492ZM142.326 87.0643L139.413 87.782L139.505 88.1547L139.688 88.4923L142.326 87.0643ZM142.594 94.1268L139.843 92.9302L139.843 92.9302L142.594 94.1268ZM142.594 41.8732L145.346 40.6766L145.346 40.6766L142.594 41.8732ZM83.2448 48.1073L85.6338 46.2927L85.6338 46.2927L83.2448 48.1073ZM73.8786 40.5481L75.1279 37.8206L73.8786 40.5481ZM36.3151 58.1928L33.5642 56.9958L33.5642 56.9958L36.3151 58.1928ZM48.5916 98.6646L47.3424 101.392L47.3424 101.392L48.5916 98.6646ZM78.7481 89.8241L51.2865 82.4814L49.7366 88.2778L77.1983 95.6204L78.7481 89.8241ZM52.3634 87.7398L77.2293 68.2296L73.5256 63.5092L48.6597 83.0194L52.3634 87.7398ZM77.2293 68.2296C78.9754 66.8596 81.2869 66.4254 83.4459 67.0818L85.191 61.3412C81.1732 60.1197 76.8249 60.9205 73.5256 63.5092L77.2293 68.2296ZM83.4459 67.0818L134.555 82.6195L136.301 76.879L85.191 61.3412L83.4459 67.0818ZM134.555 82.6195C137.076 83.3857 138.829 85.4098 139.413 87.782L145.239 86.3466C144.183 82.0618 140.981 78.3017 136.301 76.879L134.555 82.6195ZM139.688 88.4923C140.386 89.7828 140.542 91.3247 139.843 92.9302L145.346 95.3234C146.813 91.9496 146.5 88.4737 144.965 85.6364L139.688 88.4923ZM139.843 92.9302C129.631 116.408 105.386 133 77.0126 133V139C107.742 139 134.168 121.021 145.346 95.3234L139.843 92.9302ZM77.0126 133C39.3264 133 9 103.777 9 68H3C3 107.333 36.2605 139 77.0126 139V133ZM9 68C9 32.2227 39.3264 3 77.0126 3V-3C36.2605 -3 3 28.6665 3 68H9ZM77.0126 3C105.386 3 129.631 19.5918 139.843 43.0698L145.346 40.6766C134.168 14.9786 107.742 -3 77.0126 -3V3ZM139.843 43.0698C141.353 46.5407 138.694 50.72 133.979 50.72V56.72C142.066 56.72 148.942 48.9455 145.346 40.6766L139.843 43.0698ZM133.979 50.72H93.0564V56.72H133.979V50.72ZM93.0564 50.72C90.3813 50.72 87.7159 49.0338 85.6338 46.2927L80.8559 49.922C83.5683 53.4928 87.8051 56.72 93.0564 56.72V50.72ZM85.6338 46.2927C82.9096 42.7064 79.3755 39.766 75.1279 37.8206L72.6294 43.2756C75.9254 44.7852 78.6933 47.0749 80.8559 49.922L85.6338 46.2927ZM75.1279 37.8206C59.4697 30.649 41.0432 39.8071 33.5642 56.9958L39.066 59.3897C45.5526 44.4816 60.7617 37.8401 72.6294 43.2756L75.1279 37.8206ZM33.5642 56.9958C26.0934 74.1657 31.7453 94.2485 47.3424 101.392L49.8408 95.937C37.912 90.4735 32.5711 74.3167 39.066 59.3897L33.5642 56.9958ZM47.3424 101.392C58.4466 106.478 71.0656 103.302 80.024 94.9119L75.9225 90.5326C68.3944 97.5832 58.3276 99.824 49.8408 95.937L47.3424 101.392Z" fill="black" fill-opacity="0.3" mask="url(#path-1-inside-1_149_29)"/>
</g>
<defs>
<filter id="filter0_d_149_29" x="0" y="0" width="149.296" height="148" filterUnits="userSpaceOnUse" color-interpolation-filters="sRGB">
<feFlood flood-opacity="0" result="BackgroundImageFix"/>
<feColorMatrix in="SourceAlpha" type="matrix" values="0 0 0 0 0 0 0 0 0 0 0 0 0 0 0 0 0 0 127 0" result="hardAlpha"/>
<feOffset dy="6"/>
<feGaussianBlur stdDeviation="3"/>
<feComposite in2="hardAlpha" operator="out"/>
<feColorMatrix type="matrix" values="0 0 0 0 0 0 0 0 0 0 0 0 0 0 0 0 0 0 0.25 0"/>
<feBlend mode="normal" in2="BackgroundImageFix" result="effect1_dropShadow_149_29"/>
<feBlend mode="normal" in="SourceGraphic" in2="effect1_dropShadow_149_29" result="shape"/>
</filter>
<linearGradient id="paint0_linear_149_29" x1="74.648" y1="0" x2="74.648" y2="136" gradientUnits="userSpaceOnUse">
<stop stop-color="#F10808"/>
<stop offset="1" stop-color="#101248"/>
</linearGradient>
</defs>
</svg>
